<svg width="185" height="59" viewBox="0 0 185 59" fill="none" xmlns="http://www.w3.org/2000/svg">
<path fill-rule="evenodd" clip-rule="evenodd" d="M0 29.5C0 13.2076 13.2076 0 29.5 0H155.5C171.792 0 185 13.2076 185 29.5C185 45.7924 171.792 59 155.5 59H29.5C13.2076 59 0 45.7924 0 29.5ZM137.444 23.3334C135.542 21.431 135.542 18.3468 137.444 16.4445C139.347 14.5422 142.431 14.5422 144.333 16.4445L149.5 21.6111L154.667 16.4444C156.569 14.5421 159.653 14.5421 161.556 16.4444C163.458 18.3468 163.458 21.431 161.556 23.3333L156.389 28.5L161.556 33.6667C163.458 35.569 163.458 38.6533 161.556 40.5556C159.653 42.4579 156.569 42.4579 154.667 40.5556L149.5 35.3889L144.333 40.5556C142.431 42.4579 139.347 42.4579 137.444 40.5556C135.542 38.6533 135.542 35.569 137.444 33.6667L142.611 28.5L137.444 23.3334ZM28.2784 15.8182V20.3821H36.294V42H41.7656V20.3821H49.7812V15.8182H28.2784ZM53.3224 15.8182V42H71.0156V37.4361H58.858V31.1847H70.0568V26.6207H58.858V20.3821H70.9645V15.8182H53.3224ZM85.8356 24.7415L80.5558 15.8182H74.2788L82.32 28.9091L74.1254 42H80.4663L85.8356 33.0639H86.0401L91.4094 42H97.7759L89.6069 28.9091L97.5969 15.8182H91.3455L86.0401 24.7415H85.8356ZM100.103 15.8182V20.3821H108.118V42H113.59V20.3821H121.605V15.8182H100.103Z" fill="#DD5959"/>
</svg>
