<svg width="185" height="59" viewBox="0 0 185 59" fill="none" xmlns="http://www.w3.org/2000/svg">
<path fill-rule="evenodd" clip-rule="evenodd" d="M28.662 0C12.8324 0 0 13.2076 0 29.5C0 45.7924 12.8324 59 28.662 59H156.338C172.168 59 185 45.7924 185 29.5C185 13.2076 172.168 0 156.338 0H28.662ZM51.9344 17.8571V41.1428C51.9344 41.6951 52.3822 42.1428 52.9344 42.1428H70.2667C70.819 42.1428 71.2667 41.6951 71.2667 41.1428V38.1795C71.2667 37.6272 70.819 37.1795 70.2667 37.1795H59.6357C59.0835 37.1795 58.6357 36.7318 58.6357 36.1795V32.9816C58.6357 32.4293 59.0835 31.9816 59.6357 31.9816H69.2785C69.8307 31.9816 70.2785 31.5339 70.2785 30.9816V28.006C70.2785 27.4537 69.8307 27.006 69.2785 27.006H59.6357C59.0835 27.006 58.6357 26.5582 58.6357 26.006V22.8204C58.6357 22.2682 59.0835 21.8204 59.6357 21.8204H70.2667C70.819 21.8204 71.2667 21.3727 71.2667 20.8204V17.8571C71.2667 17.3048 70.819 16.8571 70.2667 16.8571H52.9344C52.3822 16.8571 51.9344 17.3048 51.9344 17.8571ZM83.0653 17.4647L87.7756 24.8963C87.8118 24.9535 87.8748 24.9882 87.9426 24.9882C88.01 24.9882 88.0727 24.9538 88.1091 24.8971L92.8726 17.4606C93.0565 17.1736 93.3738 17 93.7147 17H98.8069C99.604 17 100.081 17.8871 99.6408 18.5518L92.6726 29.0821C92.4482 29.4212 92.4515 29.8623 92.6808 30.1981L99.87 40.7216C100.323 41.3854 99.8481 42.2857 99.0443 42.2857H93.7948C93.4547 42.2857 93.138 42.1129 92.9539 41.827L88.1095 34.3023C88.0729 34.2454 88.0099 34.2111 87.9423 34.2111C87.8747 34.2111 87.8117 34.2454 87.7751 34.3023L82.9307 41.827C82.7466 42.1129 82.4299 42.2857 82.0899 42.2857H76.8892C76.0864 42.2857 75.6109 41.3873 76.0623 40.7234L83.2191 30.198C83.4474 29.8622 83.45 29.4217 83.2257 29.0833L76.2456 18.5525C75.805 17.8878 76.2816 17 77.0791 17H82.2206C82.5632 17 82.8819 17.1753 83.0653 17.4647ZM102.702 17.8571V20.8204C102.702 21.3727 103.15 21.8204 103.702 21.8204H110.123C110.675 21.8204 111.123 22.2682 111.123 22.8204V41.1428C111.123 41.6951 111.57 42.1428 112.123 42.1428H116.729C117.281 42.1428 117.729 41.6951 117.729 41.1428V22.8204C117.729 22.2682 118.177 21.8204 118.729 21.8204H125.136C125.689 21.8204 126.136 21.3727 126.136 20.8204V17.8571C126.136 17.3048 125.689 16.8571 125.136 16.8571H103.702C103.15 16.8571 102.702 17.3048 102.702 17.8571ZM130.956 33.2157L139.44 41.7192C141.001 43.2846 143.534 43.2846 145.095 41.7192L162.063 24.7122C163.625 23.1468 163.625 20.6088 162.063 19.0433C160.501 17.4779 157.969 17.4779 156.407 19.0433L142.268 33.2157L136.612 27.5468C135.05 25.9813 132.517 25.9813 130.956 27.5468C129.394 29.1122 129.394 31.6503 130.956 33.2157ZM25.2273 17.8571V20.8204C25.2273 21.3727 25.675 21.8204 26.2273 21.8204H32.648C33.2003 21.8204 33.648 22.2682 33.648 22.8204V41.1428C33.648 41.6951 34.0957 42.1428 34.648 42.1428H39.2545C39.8068 42.1428 40.2545 41.6951 40.2545 41.1428V22.8204C40.2545 22.2682 40.7022 21.8204 41.2545 21.8204H47.6617C48.214 21.8204 48.6617 21.3727 48.6617 20.8204V17.8571C48.6617 17.3048 48.214 16.8571 47.6617 16.8571H26.2273C25.675 16.8571 25.2273 17.3048 25.2273 17.8571Z" fill="#45905A"/>
</svg>
