<svg width="724" height="170" viewBox="0 0 724 170" fill="none" xmlns="http://www.w3.org/2000/svg">
<path d="M0 19C0 8.50659 8.50659 0 19 0H705C715.493 0 724 8.50659 724 19V151C724 161.493 715.493 170 705 170H19C8.50659 170 0 161.493 0 151V19Z" fill="#757575"/>
<path d="M79.6 36.4C89.2427 36.4 96.5387 38.9173 101.488 43.952C106.523 48.9013 109.04 56.1973 109.04 65.84V96.56C109.04 106.203 106.523 113.541 101.488 118.576C96.5387 123.525 89.2427 126 79.6 126H29.68V36.4H79.6ZM86 65.84C86 58.16 82.16 54.32 74.48 54.32H52.72V108.08H74.48C82.16 108.08 86 104.24 86 96.56V65.84Z" fill="url(#paint0_linear_8_57)"/>
<path d="M146.765 72.88C143.352 72.88 141.645 74.5867 141.645 78V85.04H163.405V78C163.405 74.5867 161.698 72.88 158.285 72.88H146.765ZM183.245 124.72C166.776 126.427 151.842 127.28 138.445 127.28C132.642 127.28 127.992 125.531 124.493 122.032C120.994 118.533 119.245 113.883 119.245 108.08V77.36C119.245 70.96 121.037 65.968 124.621 62.384C128.29 58.7147 133.325 56.88 139.725 56.88H165.325C171.725 56.88 176.717 58.7147 180.301 62.384C183.97 65.968 185.805 70.96 185.805 77.36V101.04H141.645V106.16C141.645 107.44 142.072 108.507 142.925 109.36C143.778 110.213 144.845 110.64 146.125 110.64C154.573 110.64 166.946 110 183.245 108.72V124.72Z" fill="url(#paint1_linear_8_57)"/>
<path d="M242.715 56.88C249.627 56.88 254.96 59.44 258.715 64.56C262.64 61.9147 266.864 59.9947 271.387 58.8C275.995 57.52 280.091 56.88 283.675 56.88H284.955C290.758 56.88 295.408 58.6293 298.907 62.128C302.406 65.6267 304.155 70.2773 304.155 76.08V126H281.755V79.92C281.755 78.64 281.328 77.5733 280.475 76.72C279.622 75.8667 278.555 75.44 277.275 75.44H276.635C272.795 75.44 267.888 76.2933 261.915 78V126H239.515V79.92C239.515 78.64 239.088 77.5733 238.235 76.72C237.382 75.8667 236.315 75.44 235.035 75.44H234.395C230.555 75.44 225.648 76.2933 219.675 78V126H197.275V58.16H217.115L218.395 64.56C222.406 61.9147 226.502 59.9947 230.683 58.8C234.95 57.52 238.534 56.88 241.435 56.88H242.715Z" fill="url(#paint2_linear_8_57)"/>
<path d="M384.77 106.8C384.77 113.2 382.935 118.235 379.266 121.904C375.682 125.488 370.69 127.28 364.29 127.28H334.85C328.45 127.28 323.415 125.488 319.746 121.904C316.162 118.235 314.37 113.2 314.37 106.8V77.36C314.37 70.96 316.162 65.968 319.746 62.384C323.415 58.7147 328.45 56.88 334.85 56.88H364.29C370.69 56.88 375.682 58.7147 379.266 62.384C382.935 65.968 384.77 70.96 384.77 77.36V106.8ZM362.37 79.28C362.37 75.8667 360.663 74.16 357.25 74.16H341.89C338.477 74.16 336.77 75.8667 336.77 79.28V104.88C336.77 108.293 338.477 110 341.89 110H357.25C360.663 110 362.37 108.293 362.37 104.88V79.28Z" fill="url(#paint3_linear_8_57)"/>
<path d="M441.715 56.88C448.627 56.88 453.96 59.44 457.715 64.56C461.64 61.9147 465.864 59.9947 470.387 58.8C474.995 57.52 479.091 56.88 482.675 56.88H483.955C489.758 56.88 494.408 58.6293 497.907 62.128C501.406 65.6267 503.155 70.2773 503.155 76.08V126H480.755V79.92C480.755 78.64 480.328 77.5733 479.475 76.72C478.622 75.8667 477.555 75.44 476.275 75.44H475.635C471.795 75.44 466.888 76.2933 460.915 78V126H438.515V79.92C438.515 78.64 438.088 77.5733 437.235 76.72C436.382 75.8667 435.315 75.44 434.035 75.44H433.395C429.555 75.44 424.648 76.2933 418.675 78V126H396.275V58.16H416.115L417.395 64.56C421.406 61.9147 425.502 59.9947 429.683 58.8C433.95 57.52 437.534 56.88 440.435 56.88H441.715Z" fill="url(#paint4_linear_8_57)"/>
<path d="M583.77 106.8C583.77 113.2 581.935 118.235 578.266 121.904C574.682 125.488 569.69 127.28 563.29 127.28H533.85C527.45 127.28 522.415 125.488 518.746 121.904C515.162 118.235 513.37 113.2 513.37 106.8V77.36C513.37 70.96 515.162 65.968 518.746 62.384C522.415 58.7147 527.45 56.88 533.85 56.88H563.29C569.69 56.88 574.682 58.7147 578.266 62.384C581.935 65.968 583.77 70.96 583.77 77.36V106.8ZM561.37 79.28C561.37 75.8667 559.663 74.16 556.25 74.16H540.89C537.477 74.16 535.77 75.8667 535.77 79.28V104.88C535.77 108.293 537.477 110 540.89 110H556.25C559.663 110 561.37 108.293 561.37 104.88V79.28Z" fill="url(#paint5_linear_8_57)"/>
<path d="M665.705 99.12L677.225 58.16H701.545L680.425 126H656.745L643.945 85.04L631.145 126H607.465L586.345 58.16H610.665L622.185 99.12L633.705 58.16H654.185L665.705 99.12Z" fill="url(#paint6_linear_8_57)"/>
<defs>
<linearGradient id="paint0_linear_8_57" x1="395.5" y1="101" x2="385.5" y2="85" gradientUnits="userSpaceOnUse">
<stop stop-color="#01FFFF"/>
<stop offset="0.0001" stop-color="#05FBFB"/>
<stop offset="1" stop-color="#BE0000"/>
</linearGradient>
<linearGradient id="paint1_linear_8_57" x1="395.5" y1="101" x2="385.5" y2="85" gradientUnits="userSpaceOnUse">
<stop stop-color="#01FFFF"/>
<stop offset="0.0001" stop-color="#05FBFB"/>
<stop offset="1" stop-color="#BE0000"/>
</linearGradient>
<linearGradient id="paint2_linear_8_57" x1="395.5" y1="101" x2="385.5" y2="85" gradientUnits="userSpaceOnUse">
<stop stop-color="#01FFFF"/>
<stop offset="0.0001" stop-color="#05FBFB"/>
<stop offset="1" stop-color="#BE0000"/>
</linearGradient>
<linearGradient id="paint3_linear_8_57" x1="395.5" y1="101" x2="385.5" y2="85" gradientUnits="userSpaceOnUse">
<stop stop-color="#01FFFF"/>
<stop offset="0.0001" stop-color="#05FBFB"/>
<stop offset="1" stop-color="#BE0000"/>
</linearGradient>
<linearGradient id="paint4_linear_8_57" x1="395.5" y1="101" x2="385.5" y2="85" gradientUnits="userSpaceOnUse">
<stop stop-color="#01FFFF"/>
<stop offset="0.0001" stop-color="#05FBFB"/>
<stop offset="1" stop-color="#BE0000"/>
</linearGradient>
<linearGradient id="paint5_linear_8_57" x1="395.5" y1="101" x2="385.5" y2="85" gradientUnits="userSpaceOnUse">
<stop stop-color="#01FFFF"/>
<stop offset="0.0001" stop-color="#05FBFB"/>
<stop offset="1" stop-color="#BE0000"/>
</linearGradient>
<linearGradient id="paint6_linear_8_57" x1="395.5" y1="101" x2="385.5" y2="85" gradientUnits="userSpaceOnUse">
<stop stop-color="#01FFFF"/>
<stop offset="0.0001" stop-color="#05FBFB"/>
<stop offset="1" stop-color="#BE0000"/>
</linearGradient>
</defs>
</svg>
